<!-- Kleos brand system — generated by brand/build.py. Do not hand-edit. -->
<svg xmlns="http://www.w3.org/2000/svg" viewBox="0 0 400 400">
  <title>0xCopilot</title>
  <defs>
    <linearGradient id="sky-32" x1="0" y1="0" x2="0" y2="1">
      <stop offset="0" stop-color="#9bd4ff"/>
      <stop offset="1" stop-color="#4593d8"/>
    </linearGradient>
  </defs>
  <g fill="url(#sky-32)">
    <path d="M200 92q50 11 58 65-30-9-58-26Z"/>
    <path d="M200 92q50 11 58 65-30-9-58-26Z" transform="rotate(60 200 200)"/>
    <path d="M200 92q50 11 58 65-30-9-58-26Z" transform="rotate(120 200 200)"/>
    <path d="M200 92q50 11 58 65-30-9-58-26Z" transform="rotate(180 200 200)"/>
    <path d="M200 92q50 11 58 65-30-9-58-26Z" transform="rotate(240 200 200)"/>
    <path d="M200 92q50 11 58 65-30-9-58-26Z" transform="rotate(300 200 200)"/>
  </g>
  <circle cx="200" cy="200" r="34" fill="#0d0c10"/>
  <circle cx="200" cy="200" r="18" fill="#5fb2ec"/>
</svg>
